<?xml version="1.0" encoding="utf-8"?>
<!-- Generator: Adobe Illustrator 22.0.1, SVG Export Plug-In . SVG Version: 6.00 Build 0)  -->
<svg version="1.1" id="Layer_1" xmlns="http://www.w3.org/2000/svg" xmlns:xlink="http://www.w3.org/1999/xlink" x="0px" y="0px"
	 viewBox="0 0 48 48" style="enable-background:new 0 0 48 48;" xml:space="preserve">
<style type="text/css">
	.st0{fill:#525257;}
</style>
<path class="st0" d="M33,6.5c2.2,0,4.1,1.8,4.1,4.1v29.7l-8.4-9.4c-1.2-1.3-2.9-2.1-4.6-2.1s-3.4,0.8-4.6,2.1L11,40.3V10.6
	c0-2.3,1.8-4.1,4.1-4.1H33 M33,3H15c-4.2,0-7.5,3.4-7.5,7.6v31.7c0,1.7,1.4,2.8,2.8,2.8c0.7,0,1.4-0.3,2-0.9L22,33.3
	c0.5-0.6,1.3-0.9,2-0.9s1.5,0.3,2,0.9l9.7,10.8c0.6,0.6,1.3,0.9,2,0.9c1.4,0,2.8-1.1,2.8-2.8V10.6C40.5,6.4,37.1,3,33,3L33,3z"/>
</svg>
