<?xml version="1.0" encoding="utf-8"?>
<!-- Generator: Adobe Illustrator 22.0.1, SVG Export Plug-In . SVG Version: 6.00 Build 0)  -->
<svg version="1.1" id="Layer_1" xmlns="http://www.w3.org/2000/svg" xmlns:xlink="http://www.w3.org/1999/xlink" x="0px" y="0px"
	 viewBox="0 0 48 48" style="enable-background:new 0 0 48 48;" xml:space="preserve">
<style type="text/css">
	.st0{fill:none;}
	.st1{fill:#525257;}
</style>
<g>
	<g>
		<g>
			<path class="st0" d="M34.6,41.5h0.8c2.7,0,4.8-2.3,4.8-5.2V16.9c0-2.6-1.8-4.7-4.1-5.1v24.7C36.2,38.4,35.6,40.1,34.6,41.5z"/>
		</g>
	</g>
	<g>
		<g>
			<path class="st1" d="M35.6,8.3c0.4,1,0.6,2.1,0.6,3.2v0.3c2.3,0.4,4.1,2.5,4.1,5.1v19.4c0,2.9-2.2,5.2-4.8,5.2h-0.8
				c-1.5,2.1-3.8,3.5-6.5,3.5h7.3c4.4,0,8.1-3.9,8.1-8.7V16.9C43.5,12.2,40,8.3,35.6,8.3z"/>
		</g>
	</g>
	<g>
		<path class="st1" d="M35.6,8.3C34.4,5.2,31.5,3,28.1,3H12.6c-4.4,0-8.1,3.8-8.1,8.5v25c0,4.7,3.6,8.5,8.1,8.5h4.9h10.7
			c2.7,0,5-1.4,6.5-3.5c1-1.4,1.6-3.1,1.6-5V11.8v-0.3C36.2,10.4,36,9.3,35.6,8.3z M28.1,41.6H12.6c-0.6,0-1.2-0.1-1.8-0.4
			c-1.8-0.7-3-2.6-3-4.7v-25c0-2.8,2.2-5.1,4.8-5.1h15.6c1.5,0,2.8,0.7,3.7,1.8c0.7,0.9,1.1,2,1.1,3.3v0.2v24.7c0,2.5-1.8,4.6-4,5
			C28.6,41.5,28.4,41.6,28.1,41.6z"/>
	</g>
</g>
<g>
	<path class="st1" d="M26.4,17H12.6c-0.9,0-1.6-0.8-1.6-1.8s0.7-1.8,1.6-1.8h13.8c0.9,0,1.6,0.8,1.6,1.8S27.3,17,26.4,17z"/>
</g>
<g>
	<path class="st1" d="M20.8,25.8h-8.1C11.7,25.8,11,25,11,24s0.7-1.8,1.6-1.8h8.1c0.9,0,1.6,0.8,1.6,1.8S21.6,25.8,20.8,25.8z"/>
</g>
<g>
	<path class="st1" d="M16.7,34.5h-4.1c-0.9,0-1.6-0.8-1.6-1.8s0.7-1.8,1.6-1.8h4.1c0.9,0,1.6,0.8,1.6,1.8S17.6,34.5,16.7,34.5z"/>
</g>
</svg>
