<?xml version="1.0" encoding="utf-8"?>
<!-- Generator: Adobe Illustrator 22.0.1, SVG Export Plug-In . SVG Version: 6.00 Build 0)  -->
<svg version="1.1" id="Layer_1" xmlns="http://www.w3.org/2000/svg" xmlns:xlink="http://www.w3.org/1999/xlink" x="0px" y="0px"
	 viewBox="0 0 48 48" style="enable-background:new 0 0 48 48;" xml:space="preserve">
<style type="text/css">
	.st0{fill:#525257;}
</style>
<path class="st0" d="M24,3C14.9,3,7.5,10.4,7.5,19.5v11.7c0,4.2,3.4,7.7,7.7,7.7h1.5c0.6,3.5,3.7,6.1,7.3,6.1c3.7,0,6.7-2.6,7.3-6.1
	h1.5c4.2,0,7.7-3.4,7.7-7.7V19.5C40.5,10.4,33.1,3,24,3z M24,41.5c-1.7,0-3.2-1.1-3.7-2.6h7.4C27.2,40.4,25.7,41.5,24,41.5z
	 M37,31.2c0,2.3-1.9,4.2-4.2,4.2h-1.7h-3.8h-6.5h-3.8h-1.7c-2.3,0-4.2-1.9-4.2-4.2V19.5c0-7.2,5.8-13,13-13s13,5.8,13,13V31.2z"/>
</svg>
