<?xml version="1.0" encoding="utf-8"?>
<!-- Generator: Adobe Illustrator 22.0.1, SVG Export Plug-In . SVG Version: 6.00 Build 0)  -->
<svg version="1.1" id="Layer_1" xmlns="http://www.w3.org/2000/svg" xmlns:xlink="http://www.w3.org/1999/xlink" x="0px" y="0px"
	 viewBox="0 0 48 48" style="enable-background:new 0 0 48 48;" xml:space="preserve">
<style type="text/css">
	.st0{fill:#525257;}
</style>
<g>
	<path class="st0" d="M21.5,6.5c8.2,0,14.9,6.7,14.9,14.9s-6.7,14.9-14.9,14.9S6.5,29.7,6.5,21.5S13.2,6.5,21.5,6.5 M21.5,3
		C11.3,3,3,11.3,3,21.5s8.3,18.5,18.5,18.5s18.5-8.3,18.5-18.5S31.7,3,21.5,3L21.5,3z"/>
</g>
<g>
	<path class="st0" d="M43.2,45c-0.4,0-0.9-0.2-1.2-0.5L32.5,35c-0.7-0.7-0.7-1.8,0-2.5c0.7-0.7,1.8-0.7,2.5,0l9.5,9.5
		c0.7,0.7,0.7,1.8,0,2.5C44.1,44.8,43.7,45,43.2,45z"/>
</g>
</svg>
